<?xml version="1.0" encoding="UTF-8" standalone="no"?>
<!-- Created with Inkscape (http://www.inkscape.org/) -->

<svg
   xmlns:dc="http://purl.org/dc/elements/1.1/"
   xmlns:cc="http://creativecommons.org/ns#"
   xmlns:rdf="http://www.w3.org/1999/02/22-rdf-syntax-ns#"
   xmlns:svg="http://www.w3.org/2000/svg"
   xmlns="http://www.w3.org/2000/svg"
   xmlns:sodipodi="http://sodipodi.sourceforge.net/DTD/sodipodi-0.dtd"
   xmlns:inkscape="http://www.inkscape.org/namespaces/inkscape"
   version="1.1"
   id="svg4505"
   width="2000"
   height="350"
   viewBox="0 0 2000 350"
   sodipodi:docname="fatracing.svg"
   inkscape:version="0.92.1 r15371">
  <metadata
     id="metadata4511">
    <rdf:RDF>
      <cc:Work
         rdf:about="">
        <dc:format>image/svg+xml</dc:format>
        <dc:type
           rdf:resource="http://purl.org/dc/dcmitype/StillImage" />
        <dc:title></dc:title>
      </cc:Work>
    </rdf:RDF>
  </metadata>
  <defs
     id="defs4509" />
  <sodipodi:namedview
     pagecolor="#ffffff"
     bordercolor="#666666"
     borderopacity="1"
     objecttolerance="10"
     gridtolerance="10"
     guidetolerance="10"
     inkscape:pageopacity="0"
     inkscape:pageshadow="2"
     inkscape:window-width="1440"
     inkscape:window-height="837"
     id="namedview4507"
     showgrid="false"
     inkscape:zoom="0.3337544"
     inkscape:cx="900.54178"
     inkscape:cy="573.43503"
     inkscape:window-x="-8"
     inkscape:window-y="-8"
     inkscape:window-maximized="1"
     inkscape:current-layer="svg4505" />
  <path
     style="fill:#000000;stroke-width:0.75888294"
     d="m 1110.1805,324.38609 c -11.4024,-1.19395 -19.1412,-4.56674 -26.3407,-11.48 -7.7509,-7.44275 -11.7167,-16.75356 -11.7422,-27.56788 -0.011,-4.81328 0.7645,-9.1368 3.7458,-20.86927 13.4987,-53.12568 50.6246,-164.799426 63.0748,-189.728246 14.0441,-28.119998 35.3904,-43.866827 65.2818,-48.157294 17.625,-2.529804 37.2981,-2.043822 45.7835,1.130979 3.2401,1.212255 5.9759,3.176206 10.8945,7.820593 8.5371,8.061029 12.7766,13.824381 13.8495,18.827666 2.1101,9.838727 -3.5034,38.433559 -13.8344,70.471822 l -4.0377,12.52158 -16.652,0.21551 c -16.7902,0.21731 -26.0831,-0.59735 -27.595,-2.41913 -0.9436,-1.13687 0.9821,-8.61057 7.1558,-27.77226 9.253,-28.719061 9.4779,-30.189913 5.319,-34.793275 -3.3909,-3.753328 -10.7189,-7.655937 -15.3602,-8.180317 -13.8594,-1.565841 -25.4604,17.455127 -46.1123,75.605562 -15.3121,43.11502 -33.4124,102.37172 -37.9994,124.40262 -2.1007,10.0889 -1.7964,11.4964 3.0752,14.22815 8.1538,4.57226 22.7532,2.17594 31.0327,-5.09355 6.2293,-5.46935 14.2601,-25.18505 27.3459,-67.13496 l 0.9469,-3.03553 h 20.2099 c 23.3874,0 23.0043,-0.1086 22.8044,6.46416 -0.2142,7.0397 -16.0466,51.15221 -23.1134,64.39858 -15.7526,29.52784 -43.065,46.64451 -80.0207,50.14889 -9.0512,0.8583 -9.4736,0.85821 -17.7117,-0.008 z m 426.0307,-0.0931 c -12.4343,-0.92326 -22.7798,-5.70938 -29.3699,-13.58742 -7.7839,-9.30505 -8.1563,-23.61135 -1.342,-51.54888 7.2993,-29.92517 37.3142,-120.80513 52.8843,-160.124293 16.5677,-41.838454 29.5986,-58.080234 53.9312,-67.219917 13.246,-4.975397 20.168,-5.955273 42.2822,-5.985409 25.0054,-0.03408 25.2828,0.04964 36.1266,10.895708 16.9421,16.945682 17.5832,29.574094 3.6509,71.912661 -2.8553,8.67668 -4.9751,13.9463 -5.7261,14.23449 -0.6558,0.25168 -9.2687,0.67039 -19.1397,0.93048 -12.9315,0.34074 -18.8733,0.21834 -21.2609,-0.43796 l -3.3138,-0.91085 0.4804,-3.0041 c 0.2641,-1.65226 2.0587,-8.03145 3.9879,-14.17597 6.1333,-19.535946 7.0919,-23.155143 7.0919,-26.776235 0,-4.084362 -1.584,-6.097466 -8.1031,-10.298278 -20.5693,-13.254391 -33.3825,5.121565 -61.4517,88.131043 -12.8709,38.06337 -24.9036,77.6549 -30.6581,100.87527 -4.1609,16.79014 -4.012,18.84269 1.5742,21.69252 8.2524,4.20998 23.3526,1.65095 30.5956,-5.18507 2.9788,-2.81151 7.2702,-10.36011 11.5094,-20.2457 4.2777,-9.97506 18.8013,-53.73909 18.446,-55.58355 -0.4045,-2.10029 -3.6643,-3.20674 -9.4828,-3.21873 -6.6946,-0.0136 -9.1515,-0.87074 -9.7901,-3.41482 -0.5719,-2.2787 -0.03,-4.65521 5.1473,-22.58807 l 3.8893,-13.47018 25.4901,0.0196 c 36.0556,0.0277 44.5475,1.04439 44.3952,5.3152 -0.037,1.03104 -10.232,32.78012 -22.6562,70.55352 -12.4241,37.7734 -24.1167,73.41533 -25.9836,79.20424 l -3.3941,10.52532 -11.5952,-0.31152 c -15.1247,-0.40639 -15.9498,-0.83492 -15.1941,-7.89147 0.4862,-4.54002 0.4175,-4.87939 -0.9873,-4.87939 -0.8304,0 -5.9855,2.20751 -11.4556,4.90565 -20.1734,9.95032 -33.1951,12.95276 -50.5782,11.66213 z M 302.86728,319.88181 c -4.61271,-0.52537 -7.05021,-1.66325 -7.05021,-3.29105 0,-2.21586 92.09386,-277.681355 93.54976,-279.820296 2.38386,-3.50226 4.90064,-5.146631 9.27888,-6.062489 9.40553,-1.96748 87.77771,-1.534476 97.77704,0.540219 2.05094,0.425535 2.13454,0.60237 1.68813,3.570946 -0.25833,1.717778 -2.42457,9.953183 -4.81389,18.300895 l -4.34421,15.177659 -30.32152,0.379442 -30.32154,0.379442 -13.09919,37.944132 c -7.20455,20.86929 -13.02522,38.62396 -12.9348,39.45482 0.33546,3.08264 3.57507,3.64258 24.81764,4.2895 18.8094,0.57282 25.05359,1.02145 25.05359,1.80003 0,0.17711 -3.08846,9.72357 -6.86325,21.21434 l -6.86326,20.8923 h -26.3444 -26.34439 l -15.88602,49.13768 c -8.73733,27.02571 -17.88997,55.36999 -20.33923,62.98728 l -4.45318,13.84962 -18.73674,-0.10382 c -10.30521,-0.0569 -20.85735,-0.34537 -23.44921,-0.64065 z m 114.05422,-0.0463 c -3.30466,-0.37269 -6.3427,-1.01189 -6.75121,-1.4204 -0.48443,-0.48439 -0.17408,-2.06469 0.8923,-4.5435 6.43208,-14.95182 116.18547,-235.237742 132.3364,-265.612313 3.86358,-7.266114 7.87685,-13.84003 8.92052,-14.6122 3.90287,-2.88758 11.91062,-3.761177 38.51331,-4.201534 13.87807,-0.229721 25.23286,-0.266906 25.23286,-0.08262 0,0.184287 -7.00201,42.998991 -15.56004,95.143787 -8.55802,52.14472 -19.19736,117.00599 -23.64298,144.13606 -4.44562,27.13007 -8.12291,49.39182 -8.17176,49.47059 -0.21902,0.35311 -49.03446,2.73472 -49.36098,2.40824 -0.20174,-0.20178 0.9344,-9.90805 2.52477,-21.5695 1.59037,-11.66152 2.84886,-21.274 2.79666,-21.36111 -0.16335,-0.2726 -51.36156,-0.37132 -51.5722,-0.0994 -0.10988,0.14175 -3.81892,7.60855 -8.24231,16.59281 -12.60402,25.59964 -12.93839,25.88338 -30.90307,26.22154 -6.0521,0.11398 -13.70762,-0.0978 -17.01227,-0.47051 z m 111.45491,-83.48398 c 1.2311,-0.60468 2.82642,-2.12397 3.54516,-3.37613 0.71875,-1.25215 2.71901,-9.96034 4.44504,-19.35151 1.72603,-9.39118 5.1483,-27.66128 7.60505,-40.60024 6.22598,-32.79026 9.23604,-50.31832 8.96146,-52.18395 -0.15262,-1.03699 -3.05321,3.80797 -8.32954,13.9132 -16.26623,31.15299 -49.95917,99.94206 -49.95917,101.99886 0,1.45008 30.70669,1.08565 33.732,-0.40031 z m 97.55475,83.77111 c -7.00322,-0.68748 -9.32041,-1.22795 -10.55388,-2.46136 -1.27794,-1.27796 -0.39853,-4.15792 19.62219,-64.26062 30.94507,-92.89791 58.45004,-177.767254 58.46467,-180.398636 0.0151,-2.708385 -4.73252,-3.760006 -19.34392,-4.284812 -14.37445,-0.51629 -16.73176,-1.064895 -17.48585,-4.069404 -0.6331,-2.522428 -0.0281,-4.957486 8.47361,-34.104503 0.3633,-1.245525 3.17818,-1.327871 45.30004,-1.325261 42.95651,0.003 81.36737,0.955115 87.03069,2.158044 2.39692,0.509127 2.63038,0.782947 2.39263,2.806371 -0.48997,4.169797 -6.93165,25.535502 -8.58671,28.480271 -2.78597,4.956993 -4.86745,5.501029 -23.02292,6.017555 -19.88588,0.565754 -20.99055,1.005398 -24.93463,9.923669 -1.60875,3.637683 -33.84901,100.546006 -69.21988,208.062346 l -11.17222,33.96001 -17.15386,-0.12142 c -9.43463,-0.0668 -18.34911,-0.23882 -19.80996,-0.38225 z m 99.60339,-0.0539 c -4.5754,-0.22296 -5.5019,-0.48614 -5.5019,-1.56292 0,-1.0084 94.6271,-286.068067 95.21082,-286.818117 0.0785,-0.100833 15.65522,-0.580993 34.615,-1.067028 49.08209,-1.258235 66.35596,0.173018 79.39516,6.578393 17.23855,8.468276 18.53907,25.234194 5.08084,65.501102 -5.84156,17.47792 -11.6404,31.26536 -16.70512,39.71839 -4.91325,8.20025 -13.91323,17.61366 -23.56505,24.64754 -7.81389,5.69478 -9.35405,7.31223 -9.35405,9.82382 0,0.72047 2.06011,4.14547 4.57801,7.61098 6.48901,8.93129 7.5274,11.54784 7.54745,19.01807 0.0238,8.84507 -1.21699,14.25705 -9.93029,43.31567 -7.11758,23.73687 -11.81879,44.2648 -13.94494,60.89064 -0.6672,5.21732 -1.37644,10.25441 -1.57607,11.19353 l -0.36297,1.70748 h -25.40812 c -19.82691,0 -25.40552,-0.20839 -25.39626,-0.9486 0.007,-0.52173 0.67908,-5.64556 1.49455,-11.38636 1.84007,-12.9536 5.62558,-28.60093 13.90652,-57.48227 7.50665,-26.18085 8.30952,-29.70329 8.3922,-36.81925 0.11568,-9.95549 -3.68291,-13.01689 -21.14905,-17.04489 -5.42601,-1.2514 -10.56728,-2.27924 -11.42505,-2.28417 -1.40031,-0.008 -3.61243,6.40368 -21.66249,62.78853 l -20.10291,62.79757 -19.3172,0.0455 c -10.62446,0.025 -21.79304,-0.0759 -24.81908,-0.22296 z M 847.52498,152.90079 c 13.51976,-2.87016 18.58445,-5.65917 22.28132,-12.26979 7.84282,-14.02426 19.37813,-47.162258 19.44407,-55.857835 0.0221,-2.909421 -2.88987,-7.642825 -6.15832,-10.010478 -5.46178,-3.956498 -10.8287,-5.570095 -18.76521,-5.64187 l -7.10295,-0.06428 -2.88591,3.248103 c -3.89982,4.389257 -7.02961,12.100988 -16.69923,41.14655 -8.38924,25.19954 -12.55765,39.2786 -11.84138,39.99486 1.90769,1.9077 11.28104,1.67245 21.72761,-0.54529 z m 45.91242,167.32965 c -0.83477,-0.15383 -3.44318,-0.48903 -5.79647,-0.74484 -2.35329,-0.25582 -4.84927,-0.88228 -5.54661,-1.39217 -1.17513,-0.85929 -1.14984,-1.20314 0.34547,-4.69908 4.40832,-10.30609 138.63161,-279.385977 140.32961,-281.321236 0.5343,-0.60898 56.68,-3.09178 61.3391,-2.71246 l 2.8741,0.23401 -23.3258,144.946636 c -12.8291,79.72066 -23.3369,145.20277 -23.3506,145.51581 -0.014,0.31304 -11.3098,0.56917 -25.1024,0.56917 h -25.0776 l 0.41378,-2.46638 c 0.22758,-1.3565 1.44554,-10.3208 2.7066,-19.92067 1.26106,-9.59987 2.46284,-18.22268 2.67061,-19.16179 l 0.37778,-1.70749 h -25.786 -25.78601 l -8.40142,16.61361 c -4.62078,9.13749 -9.43908,18.04609 -10.70733,19.79683 -3.72103,5.1368 -7.35223,6.32286 -20.03469,6.54422 -5.84339,0.102 -11.30735,0.06 -12.14212,-0.0942 z m 106.42053,-84.09349 c 1.34947,-0.70955 2.95177,-2.25365 3.56077,-3.43129 1.8665,-3.60955 18.4999,-93.78272 20.5279,-111.28617 l 0.4396,-3.79441 -1.6264,1.89721 c -1.9947,2.32694 -9.108,16.4435 -17.208,34.14973 -9.46446,20.68923 -21.98651,47.29632 -31.21427,66.32463 -4.63475,9.55721 -8.42681,17.53945 -8.42681,17.73835 0,0.19891 7.08608,0.21098 15.74683,0.0265 12.89404,-0.27411 16.19131,-0.56848 18.20038,-1.62492 z m 236.48237,83.71185 c -6.3486,-0.6688 -10.8916,-2.01969 -10.8916,-3.23861 0,-0.4746 8.1704,-25.4628 18.1566,-55.52936 14.7801,-44.50059 61.6402,-186.342086 73.5929,-222.759012 l 2.8644,-8.727154 20.8028,0.06815 c 22.4555,0.07361 26.6511,0.654582 27.0948,3.752039 0.1216,0.848279 -10.5227,33.973239 -23.6539,73.611017 -13.1312,39.63779 -34.3917,103.91336 -47.2455,142.83457 l -23.3704,70.76584 -15.9629,-0.10307 c -8.7795,-0.0569 -18.4039,-0.36016 -21.3872,-0.67441 z m 77.7315,0.0787 c -4.7941,-0.67776 -8.5118,-2.65807 -7.914,-4.21567 0.406,-1.05819 51.1951,-154.46285 78.7101,-237.738378 l 16.1103,-48.75823 h 33.2771 c 18.3024,0 33.2771,0.165536 33.2771,0.367846 0,0.202318 -0.6717,7.971382 -1.4925,17.264587 -1.8973,21.480698 -4.1964,60.591725 -5.6771,96.579445 -0.6355,15.44327 -1.3214,31.49365 -1.5244,35.6675 l -0.3692,7.58884 26.3495,-78.81314 26.3494,-78.813146 17.0749,0.373978 c 16.6487,0.364643 22.4582,1.133111 23.2011,3.069059 0.6191,1.613469 -19.6979,64.071176 -67.4348,207.305049 l -26.8095,80.4416 -29.7783,0.1986 -29.7784,0.19851 0.4033,-2.47516 c 1.7198,-10.55744 4.579,-50.3717 7.2623,-101.13004 1.3732,-25.97694 2.9493,-50.97784 4.2611,-67.59443 0.4412,-5.58706 0.385,-5.93198 -0.784,-4.82485 -3.1037,2.93931 -13.8625,33.08281 -41.2041,115.44384 -11.2213,33.80194 -20.0206,59.14704 -20.6215,59.39694 -1.7797,0.74014 -28.2938,1.11685 -32.8884,0.46725 z"
     id="path4515"
     inkscape:connector-curvature="0" />
</svg>
